# xmcd
#
# Track frame offsets:
#	150
#	16211
#	25613
#	36571
#	48573
#	58104
#	69927
#	84068
#	96219
#	107005
#	117884
#
# Disc length: 1777 seconds
# Revision: 0
# Processed by: cddbd v1.5.2PL0 Copyright (c) Steve Scherf et al.
# Submitted via: dBpowerAMP V12.0
#
DISCID=8306ef0b
DTITLE=Narvel Felts - Narvel Felts [ABC[ (L)
DYEAR=1975
DGENRE=Country
TTITLE0=Reconsider Me
TTITLE1=Blue Darlin'
TTITLE2=Slip Away
TTITLE3=Let My Fingers do the Walking
TTITLE4=I Remember You
TTITLE5=I May Never get to Heaven
TTITLE6=Honey Love
TTITLE7=Gone
TTITLE8=No One Knows
TTITLE9=Guess Who
TTITLE10=Funny How Time Slips Away
EXTD=
EXTT0=
EXTT1=
EXTT2=
EXTT3=
EXTT4=
EXTT5=
EXTT6=
EXTT7=
EXTT8=
EXTT9=
EXTT10=
PLAYORDER=
